<?xml version="1.0" encoding="utf-8"?>
<!-- Generator: Adobe Illustrator 27.5.0, SVG Export Plug-In . SVG Version: 6.00 Build 0)  -->
<svg version="1.1" xmlns="http://www.w3.org/2000/svg" xmlns:xlink="http://www.w3.org/1999/xlink" x="0px" y="0px"
	 viewBox="0 0 500 500" style="enable-background:new 0 0 500 500;" xml:space="preserve">
<g id="BACKGROUND">
	<radialGradient id="SVGID_1_" cx="3.397" cy="-5.8155" r="666.9472" gradientUnits="userSpaceOnUse">
		<stop  offset="0" style="stop-color:#560000"/>
		<stop  offset="0.356" style="stop-color:#380300"/>
		<stop  offset="0.7622" style="stop-color:#1C0600"/>
		<stop  offset="0.9981" style="stop-color:#120700"/>
	</radialGradient>
	<rect style="fill:url(#SVGID_1_);" width="500" height="500"/>
</g>
<g id="OBJECTS">
	<g>
		<g>
			<g>
				<g>
					<g>
						
							<linearGradient id="SVGID_00000017515077716962551850000016262253935300999332_" gradientUnits="userSpaceOnUse" x1="190.6039" y1="181.7571" x2="355.5722" y2="346.7254">
							<stop  offset="0.0019" style="stop-color:#FFE000"/>
							<stop  offset="1" style="stop-color:#FF0700"/>
						</linearGradient>
						<path style="fill:url(#SVGID_00000017515077716962551850000016262253935300999332_);" d="M209.895,238.011
							c0,20.414,16.549,36.963,36.963,36.963c20.414,0,36.963-16.549,36.963-36.963c0-20.414-16.549-36.963-36.963-36.963
							C226.444,201.048,209.895,217.597,209.895,238.011z M219.139,238.011c0-15.309,12.41-27.719,27.719-27.719
							c15.309,0,27.719,12.41,27.719,27.719c0,15.309-12.41,27.719-27.719,27.719C231.549,265.73,219.139,253.32,219.139,238.011z"
							/>
						<g>
							
								<linearGradient id="SVGID_00000067231650915933443360000003414803407289966979_" gradientUnits="userSpaceOnUse" x1="200.0357" y1="172.3253" x2="365.0043" y2="337.2939">
								<stop  offset="0" style="stop-color:#FF0700"/>
								<stop  offset="1" style="stop-color:#420200"/>
							</linearGradient>
							<path style="fill:url(#SVGID_00000067231650915933443360000003414803407289966979_);" d="M257.705,226.861
								c-2.888,0.782-5.488,2.324-7.778,4.6c-0.932-0.438-1.972-0.683-3.07-0.683c-0.488,0-0.965,0.049-1.427,0.141
								c-0.59-2.475-0.596-4.85-0.004-7.103c1.013-3.857,3.581-6.596,5.399-8.129c6.739,1.19,12.447,5.352,15.727,11.088
								C264.09,226.216,260.987,225.973,257.705,226.861z"/>
							
								<linearGradient id="SVGID_00000023245383947983316360000008525255055459869060_" gradientUnits="userSpaceOnUse" x1="194.514" y1="177.8466" x2="359.483" y2="342.8156">
								<stop  offset="0" style="stop-color:#FF0700"/>
								<stop  offset="1" style="stop-color:#420200"/>
							</linearGradient>
							<path style="fill:url(#SVGID_00000023245383947983316360000008525255055459869060_);" d="M242.72,232.079
								c-1.255,0.877-2.219,2.142-2.717,3.622c-2.449-0.729-4.517-1.919-6.176-3.57c-2.831-2.816-3.911-6.383-4.325-8.711
								c4.16-4.943,10.389-8.086,17.355-8.086c0.039,0,0.078,0.003,0.117,0.003c-1.716,1.853-3.478,4.419-4.349,7.705
								C241.859,225.934,241.894,228.957,242.72,232.079z"/>
							
								<linearGradient id="SVGID_00000176033881152783998300000015957703951035947454_" gradientUnits="userSpaceOnUse" x1="181.3862" y1="190.9746" x2="346.3551" y2="355.9435">
								<stop  offset="0" style="stop-color:#FF0700"/>
								<stop  offset="1" style="stop-color:#420200"/>
							</linearGradient>
							<path style="fill:url(#SVGID_00000176033881152783998300000015957703951035947454_);" d="M227.279,226.572
								c0.747,2.413,2.088,5.222,4.498,7.62c2.121,2.11,4.758,3.59,7.874,4.435c0.134,1.591,0.782,3.034,1.779,4.165
								c-1.849,1.749-3.903,2.942-6.152,3.556c-3.852,1.052-7.513,0.195-9.749-0.615c-0.873-2.41-1.351-5.01-1.351-7.722
								C224.18,233.838,225.312,229.931,227.279,226.572z"/>
							
								<linearGradient id="SVGID_00000065060031700360221390000012847337209161749905_" gradientUnits="userSpaceOnUse" x1="181.1721" y1="191.1889" x2="346.14" y2="356.1569">
								<stop  offset="0" style="stop-color:#FF0700"/>
								<stop  offset="1" style="stop-color:#420200"/>
							</linearGradient>
							<path style="fill:url(#SVGID_00000065060031700360221390000012847337209161749905_);" d="M236.01,249.161
								c2.888-0.782,5.488-2.324,7.778-4.6c0.932,0.438,1.972,0.683,3.07,0.683c0.489,0,0.965-0.049,1.427-0.141
								c0.59,2.475,0.596,4.85,0.004,7.103c-1.013,3.857-3.581,6.596-5.399,8.129c-6.739-1.19-12.448-5.353-15.727-11.088
								c1.297,0.294,2.77,0.502,4.354,0.502C232.942,249.749,234.456,249.582,236.01,249.161z"/>
							
								<linearGradient id="SVGID_00000036963712038826962830000008913684262587844268_" gradientUnits="userSpaceOnUse" x1="199.8212" y1="172.5399" x2="364.7893" y2="337.508">
								<stop  offset="0" style="stop-color:#FF0700"/>
								<stop  offset="1" style="stop-color:#420200"/>
							</linearGradient>
							<path style="fill:url(#SVGID_00000036963712038826962830000008913684262587844268_);" d="M254.064,237.397
								c-0.134-1.591-0.782-3.035-1.779-4.166c1.849-1.75,3.903-2.943,6.152-3.557c3.853-1.053,7.513-0.195,9.748,0.614
								c0.873,2.41,1.351,5.01,1.351,7.722c0,4.173-1.132,8.08-3.099,11.439c-0.747-2.412-2.088-5.222-4.498-7.619
								C259.817,239.721,257.18,238.242,254.064,237.397z"/>
							
								<linearGradient id="SVGID_00000060711218924333491510000003903193704561961625_" gradientUnits="userSpaceOnUse" x1="186.6934" y1="185.667" x2="351.6619" y2="350.6355">
								<stop  offset="0" style="stop-color:#FF0700"/>
								<stop  offset="1" style="stop-color:#420200"/>
							</linearGradient>
							<path style="fill:url(#SVGID_00000060711218924333491510000003903193704561961625_);" d="M250.995,243.943
								c1.255-0.877,2.219-2.143,2.717-3.622c2.439,0.726,4.499,1.909,6.154,3.549c2.833,2.806,3.922,6.398,4.34,8.739
								c-4.16,4.939-10.387,8.08-17.349,8.08c-0.039,0-0.078-0.003-0.117-0.003c1.715-1.853,3.478-4.419,4.349-7.705
								C251.857,250.088,251.821,247.065,250.995,243.943z"/>
						</g>
						
							<linearGradient id="SVGID_00000099650757891672964930000012039172627948328380_" gradientUnits="userSpaceOnUse" x1="190.6036" y1="181.7568" x2="355.5727" y2="346.7259">
							<stop  offset="0.0019" style="stop-color:#FFE000"/>
							<stop  offset="1" style="stop-color:#FF0700"/>
						</linearGradient>
						<path style="fill:url(#SVGID_00000099650757891672964930000012039172627948328380_);" d="M242.229,238.011
							c0,2.556,2.072,4.629,4.628,4.629c2.556,0,4.629-2.072,4.629-4.629c0-2.556-2.072-4.628-4.629-4.628
							C244.301,233.383,242.229,235.455,242.229,238.011z"/>
						
							<linearGradient id="SVGID_00000054261721080754615100000009459830709632154547_" gradientUnits="userSpaceOnUse" x1="136.7311" y1="292.9039" x2="136.7311" y2="55.1324">
							<stop  offset="0" style="stop-color:#FF0700"/>
							<stop  offset="1" style="stop-color:#420200"/>
						</linearGradient>
						<path style="fill:url(#SVGID_00000054261721080754615100000009459830709632154547_);" d="M133.291,154.404
							c2.963-0.467,6.906,8.929,8.806,20.986s1.038,22.211-1.925,22.678c-2.963,0.467-6.906-8.929-8.806-20.986
							C129.465,165.025,130.327,154.871,133.291,154.404z"/>
						<g>
							
								<linearGradient id="SVGID_00000154427196523314001310000004475206152143034282_" gradientUnits="userSpaceOnUse" x1="174.4614" y1="197.8993" x2="339.4308" y2="362.8686">
								<stop  offset="0.0019" style="stop-color:#FFE000"/>
								<stop  offset="1" style="stop-color:#FF0700"/>
							</linearGradient>
							<path style="fill:url(#SVGID_00000154427196523314001310000004475206152143034282_);" d="M194.716,218.154h-3.899
								c0.475-1.918,1.981-3.424,3.899-3.899V218.154z"/>
							
								<linearGradient id="SVGID_00000142869306168818695220000015923146984249327513_" gradientUnits="userSpaceOnUse" x1="176.9953" y1="195.3648" x2="341.9666" y2="360.3361">
								<stop  offset="0.0019" style="stop-color:#FFE000"/>
								<stop  offset="1" style="stop-color:#FF0700"/>
							</linearGradient>
							<path style="fill:url(#SVGID_00000142869306168818695220000015923146984249327513_);" d="M197.294,218.154v-3.899
								c1.918,0.475,3.424,1.981,3.899,3.899H197.294z"/>
							
								<linearGradient id="SVGID_00000021121186247847505900000011684495534533146544_" gradientUnits="userSpaceOnUse" x1="171.9275" y1="200.4338" x2="336.8942" y2="365.4005">
								<stop  offset="0.0019" style="stop-color:#FFE000"/>
								<stop  offset="1" style="stop-color:#FF0700"/>
							</linearGradient>
							<path style="fill:url(#SVGID_00000021121186247847505900000011684495534533146544_);" d="M194.716,220.732v3.899
								c-1.918-0.475-3.424-1.981-3.899-3.899H194.716z"/>
							
								<linearGradient id="SVGID_00000153689135773011513700000017712931164024353469_" gradientUnits="userSpaceOnUse" x1="174.4614" y1="197.8993" x2="339.4305" y2="362.8683">
								<stop  offset="0.0019" style="stop-color:#FFE000"/>
								<stop  offset="1" style="stop-color:#FF0700"/>
							</linearGradient>
							<path style="fill:url(#SVGID_00000153689135773011513700000017712931164024353469_);" d="M197.294,220.732h3.899
								c-0.475,1.918-1.981,3.424-3.899,3.899V220.732z"/>
						</g>
						
							<linearGradient id="SVGID_00000133500342725324399510000008622454888335036819_" gradientUnits="userSpaceOnUse" x1="222.0853" y1="110.3229" x2="222.0853" y2="336.0839">
							<stop  offset="0.0019" style="stop-color:#FFE000"/>
							<stop  offset="1" style="stop-color:#FF0700"/>
						</linearGradient>
						<path style="fill:url(#SVGID_00000133500342725324399510000008622454888335036819_);" d="M137.342,148.896
							c-1.633-1.616-3.342-2.432-5.114-2.432c-0.26,0-0.521,0.019-0.777,0.056c-7.88,1.139-8.325,17.814-6.312,31.747
							c2.017,13.962,8.494,28.403,15.842,28.403c0.263,0,0.527-0.019,0.785-0.056c2.134-0.308,3.765-1.729,4.882-4.238
							c64.794-16.131,114.066-28.217,135.948,7.367c2.739,4.454,4.76,9.372,6.096,14.411c1.396,5.077,1.999,10.391,1.583,15.651
							c-0.544,7.613-3.177,14.883-7.352,21.11c-7.593,12.012-20.99,19.989-36.251,19.989c-23.67,0-42.858-19.188-42.858-42.858
							s19.188-42.858,42.858-42.858c9.938,0,19.086,3.384,26.355,9.061c-19.139-18.818-54.6-15.622-82.787-8.166
							c-5.927,10.237-9.324,22.12-9.324,34.8c0,38.42,31.145,69.565,69.565,69.565s69.565-31.145,69.565-69.565
							C320.047,150.357,208.245,142.852,137.342,148.896z M141.35,203.738c-4.517,0.653-11.173-10.916-13.335-25.886
							c-2.163-14.97-0.666-27.803,3.851-28.455c4.517-0.652,10.344,11.122,12.506,26.092
							C146.535,190.458,145.867,203.085,141.35,203.738z M148.491,198.25c0.656-9.337,0.529-16.516,0.529-16.516
							c64.156-13.947,110.504,6.09,110.504,6.09C204.201,174.808,148.491,198.25,148.491,198.25z M196.179,211.713
							c4.285,0,7.758,3.474,7.758,7.758c0,4.285-3.474,7.758-7.758,7.758c-4.285,0-7.758-3.474-7.758-7.758
							C188.421,215.187,191.894,211.713,196.179,211.713z M250.084,296.66c-33.663,0-61.049-27.386-61.049-61.049h2.473
							c0,12.443,3.912,23.984,10.554,33.481l5.548-3.897c4.104,5.844,9.496,10.889,15.592,14.591
							c11.309,6.868,25.238,9.15,38.212,6.26c12.425-2.767,23.777-10.367,31.145-20.852l5.547,3.898
							c6.642-9.498,10.554-21.038,10.554-33.482h2.473C311.133,269.273,283.746,296.66,250.084,296.66z"/>
					</g>
					
						<linearGradient id="SVGID_00000048488661636075835150000017059545288723059131_" gradientUnits="userSpaceOnUse" x1="363.2689" y1="292.9039" x2="363.2689" y2="55.1324">
						<stop  offset="0" style="stop-color:#FF0700"/>
						<stop  offset="1" style="stop-color:#420200"/>
					</linearGradient>
					<path style="fill:url(#SVGID_00000048488661636075835150000017059545288723059131_);" d="M366.709,154.404
						c-2.964-0.467-6.906,8.929-8.806,20.986c-1.9,12.057-1.038,22.211,1.925,22.678c2.963,0.467,6.906-8.929,8.806-20.986
						C370.535,165.025,369.673,154.871,366.709,154.404z"/>
					
						<linearGradient id="SVGID_00000031179342594465823430000017783114544979471745_" gradientUnits="userSpaceOnUse" x1="268.7858" y1="103.575" x2="433.754" y2="268.5433">
						<stop  offset="0.0019" style="stop-color:#FFE000"/>
						<stop  offset="1" style="stop-color:#FF0700"/>
					</linearGradient>
					<path style="fill:url(#SVGID_00000031179342594465823430000017783114544979471745_);" d="M368.549,146.52
						c-0.256-0.037-0.518-0.056-0.777-0.056c-1.772,0-3.481,0.816-5.114,2.432c-30.608-2.609-68.837-2.692-102.404,4.533
						c4.019,1.31,25.915,8.317,42.598,23.821c14.545-0.722,31.021-0.078,48.809,3.083c0,0-1.555,7.111-0.66,16.403
						c0,0-15.952-6.007-39.119-9.376c1.425,1.955,2.744,3.967,3.945,6.04c11.799,2.58,24.34,5.694,37.524,8.977
						c1.117,2.508,2.748,3.929,4.882,4.238c0.258,0.037,0.522,0.056,0.785,0.056c7.348,0,13.825-14.441,15.842-28.403
						C376.874,164.334,376.429,147.659,368.549,146.52z M371.985,177.851c-2.163,14.97-8.819,26.539-13.336,25.886
						c-4.517-0.652-5.185-13.279-3.022-28.249c2.163-14.97,7.989-26.745,12.506-26.092
						C372.651,150.049,374.148,162.882,371.985,177.851z"/>
				</g>
				<g>
					
						<linearGradient id="SVGID_00000135670296040356179030000006423883082786897305_" gradientUnits="userSpaceOnUse" x1="197.5945" y1="174.7664" x2="362.5626" y2="339.7345">
						<stop  offset="0.0019" style="stop-color:#FFE000"/>
						<stop  offset="1" style="stop-color:#FF0700"/>
					</linearGradient>
					<path style="fill:url(#SVGID_00000135670296040356179030000006423883082786897305_);" d="M359.02,211.084
						c-0.471,0-0.946-0.034-1.413-0.101c-2.176-0.314-5.037-1.429-7.204-4.792c-0.918-0.228-1.84-0.457-2.761-0.686
						c0.902,0.468,1.758,0.868,2.546,1.201c-8.696,35.364-28.009,64.552-57.458,86.814c-19.541,14.772-37.581,21.619-42.735,23.395
						c-5.124-1.758-22.921-8.496-42.41-23.157c-20.532-15.446-46.877-42.95-57.771-87.054c0.787-0.333,1.643-0.733,2.544-1.201
						c-0.92,0.229-1.838,0.457-2.761,0.687c-2.166,3.362-5.027,4.477-7.2,4.792c-0.471,0.068-0.946,0.101-1.417,0.101
						c-0.228,0-0.451-0.018-0.676-0.033c11.889,45.93,39.498,74.696,61.089,90.939c24.484,18.419,46.225,25.01,47.139,25.282
						l1.468,0.436l1.468-0.436c0.913-0.272,22.654-6.863,47.139-25.282c21.591-16.243,49.2-45.008,61.089-90.939
						C359.471,211.066,359.247,211.084,359.02,211.084z M337.673,250.044c-1.2,2.324-2.506,4.59-3.864,6.825
						c-2.728,4.462-5.714,8.768-8.928,12.9c-6.431,8.263-13.748,15.836-21.683,22.696c-7.97,6.817-16.532,12.974-25.61,18.269
						c-8.825,5.185-18.068,9.664-27.589,13.449c-9.521-3.786-18.764-8.265-27.589-13.449c-9.077-5.295-17.64-11.452-25.61-18.269
						c-7.935-6.86-15.252-14.433-21.683-22.696c-3.213-4.132-6.199-8.438-8.928-12.9c-1.358-2.234-2.664-4.501-3.864-6.825
						c-1.204-2.325-2.338-4.671-3.295-7.132l0.688-0.262c1,2.363,2.202,4.676,3.459,6.935c1.257,2.265,2.617,4.472,4.027,6.644
						c2.832,4.337,5.913,8.509,9.21,12.499c6.599,7.978,14.038,15.23,22.047,21.749c8.044,6.476,16.63,12.272,25.689,17.2
						c8.317,4.559,16.971,8.482,25.849,11.793c8.878-3.311,17.531-7.234,25.849-11.793c9.058-4.929,17.644-10.724,25.689-17.2
						c8.009-6.519,15.448-13.771,22.047-21.749c3.297-3.99,6.378-8.162,9.21-12.499c1.41-2.172,2.77-4.379,4.027-6.644
						c1.258-2.259,2.459-4.573,3.46-6.935l0.688,0.262C340.011,245.373,338.877,247.719,337.673,250.044z"/>
					
						<linearGradient id="SVGID_00000146500736636244580890000017609447340448027836_" gradientUnits="userSpaceOnUse" x1="240.8145" y1="131.5463" x2="405.7833" y2="296.5151">
						<stop  offset="0.0019" style="stop-color:#FFE000"/>
						<stop  offset="1" style="stop-color:#FF0700"/>
					</linearGradient>
					<path style="fill:url(#SVGID_00000146500736636244580890000017609447340448027836_);" d="M165.915,142.957
						c2.995-0.062,5.976-0.094,8.939-0.094c2.854,0,5.84,0.034,8.919,0.103L250,117.645l66.212,25.316
						c2.946-0.064,5.927-0.097,8.943-0.097c2.96,0,5.938,0.031,8.93,0.094c0.003-0.031,0.006-0.061,0.009-0.092l0.414-3.936
						L250,106.618l-84.507,32.312l0.414,3.936C165.91,142.896,165.912,142.926,165.915,142.957z"/>
				</g>
				<g>
					
						<linearGradient id="SVGID_00000134932307996485285280000001268260385517853589_" gradientUnits="userSpaceOnUse" x1="169.8326" y1="292.9039" x2="169.8326" y2="55.1326">
						<stop  offset="0" style="stop-color:#FF0700"/>
						<stop  offset="1" style="stop-color:#420200"/>
					</linearGradient>
					<path style="fill:url(#SVGID_00000134932307996485285280000001268260385517853589_);" d="M176.698,236.233
						c-6.399-7.481-12.622-16.027-18.234-25.732c-0.007,0.004-0.013,0.009-0.02,0.013c5.345,18.605,13.599,33.918,22.777,46.362
						C178.774,250.377,177.216,243.447,176.698,236.233z"/>
					
						<linearGradient id="SVGID_00000023249492145264932100000010950609467142675337_" gradientUnits="userSpaceOnUse" x1="249.7379" y1="292.9041" x2="249.7379" y2="55.1371">
						<stop  offset="0" style="stop-color:#FF0700"/>
						<stop  offset="1" style="stop-color:#420200"/>
					</linearGradient>
					<path style="fill:url(#SVGID_00000023249492145264932100000010950609467142675337_);" d="M250.482,304.863
						c-4.313,0-8.54-0.375-12.654-1.087c5.147,2.538,9.371,4.268,12.162,5.318c2.705-1.021,6.745-2.675,11.656-5.073
						C258.005,304.575,254.277,304.863,250.482,304.863z"/>
					
						<linearGradient id="SVGID_00000009560723135070024300000008139470201801595048_" gradientUnits="userSpaceOnUse" x1="330.9828" y1="292.9039" x2="330.9828" y2="55.1328">
						<stop  offset="0" style="stop-color:#FF0700"/>
						<stop  offset="1" style="stop-color:#420200"/>
					</linearGradient>
					<path style="fill:url(#SVGID_00000009560723135070024300000008139470201801595048_);" d="M320.536,254.678
						c9.3-13.122,16.288-27.714,20.894-43.695c-4.954,8.555-10.659,16.642-17.1,24.252
						C323.936,241.997,322.633,248.519,320.536,254.678z"/>
				</g>
				
					<linearGradient id="SVGID_00000128455514948797742810000004219545551327229066_" gradientUnits="userSpaceOnUse" x1="249.9996" y1="292.9043" x2="249.9996" y2="55.1337">
					<stop  offset="0" style="stop-color:#FF0700"/>
					<stop  offset="1" style="stop-color:#420200"/>
				</linearGradient>
				<polygon style="fill:url(#SVGID_00000128455514948797742810000004219545551327229066_);" points="250,123.847 216.04,137.171 
					250,143.705 283.959,137.171 				"/>
			</g>
			
				<linearGradient id="SVGID_00000124154217104595289990000008459011333961137293_" gradientUnits="userSpaceOnUse" x1="278.4565" y1="219.1907" x2="146.9241" y2="97.0535">
				<stop  offset="0.0019" style="stop-color:#FFE000"/>
				<stop  offset="1" style="stop-color:#FFFFFF"/>
			</linearGradient>
			<path style="fill:url(#SVGID_00000124154217104595289990000008459011333961137293_);" d="M183.024,155.293
				c8.502-0.173,17.162,0.008,25.603,0.653c0.747,0.058,4.757,0.439,5.404,0.485c1.558,0.177,3.819,0.455,5.386,0.634
				c3.757,0.493,8.012,1.218,11.758,1.929c1.532,0.336,3.742,0.816,5.284,1.157c2.01,0.518,4.275,1.07,6.268,1.646l4.125,1.26
				c5.46,1.798,10.783,3.946,15.862,6.514l-0.114,0.267c-9.357-3.151-19.117-4.948-28.924-5.656
				c-11.086-0.857-22.396-0.47-33.446,0.665c-5.248,0.533-10.5,1.244-15.731,2.102C184.262,163.363,183.813,159.398,183.024,155.293
				z"/>
			
				<linearGradient id="SVGID_00000046328390679521818840000013207008778282445487_" gradientUnits="userSpaceOnUse" x1="252.4109" y1="247.2392" x2="120.8789" y2="125.1023">
				<stop  offset="0.0019" style="stop-color:#FFE000"/>
				<stop  offset="1" style="stop-color:#FFFFFF"/>
			</linearGradient>
			<path style="fill:url(#SVGID_00000046328390679521818840000013207008778282445487_);" d="M145.97,158.231
				c10.089-1.366,20.236-2.266,30.404-2.719c0.666,3.84,1.208,8.158,1.385,12.626c-4.877,0.919-9.727,1.958-14.529,3.096
				c-4.04,0.975-8.066,2.004-12.069,3.11c-0.015-0.079-0.028-0.157-0.043-0.236C149.993,168.189,148.189,162.779,145.97,158.231z"/>
			
				<linearGradient id="SVGID_00000146474401607303524190000012707150151613743757_" gradientUnits="userSpaceOnUse" x1="297.8125" y1="183.7422" x2="297.8125" y2="107.3608">
				<stop  offset="0.0019" style="stop-color:#FFE000"/>
				<stop  offset="1" style="stop-color:#FFFFFF"/>
			</linearGradient>
			<path style="fill:url(#SVGID_00000146474401607303524190000012707150151613743757_);" d="M315.501,166.948
				c-5.231-0.859-10.483-1.569-15.731-2.102c-2.797-0.287-5.612-0.518-8.434-0.699l-12.687-7.091
				c0.981-0.117,29.049-1.952,38.327-1.763C316.187,159.398,315.738,163.363,315.501,166.948z"/>
			
				<linearGradient id="SVGID_00000159440139728187377040000007909129567565691789_" gradientUnits="userSpaceOnUse" x1="338.1357" y1="183.7421" x2="338.1357" y2="107.3609">
				<stop  offset="0.0019" style="stop-color:#FFE000"/>
				<stop  offset="1" style="stop-color:#FFFFFF"/>
			</linearGradient>
			<path style="fill:url(#SVGID_00000159440139728187377040000007909129567565691789_);" d="M348.882,174.108
				c-0.015,0.079-0.029,0.157-0.043,0.236c-4.003-1.106-8.028-2.135-12.068-3.11c-4.802-1.139-9.652-2.177-14.529-3.096
				c0.177-4.468,0.718-8.785,1.385-12.626c10.168,0.454,20.316,1.353,30.404,2.719C351.811,162.779,350.007,168.189,348.882,174.108
				z"/>
		</g>
	</g>
</g>
<g id="TEXT">
	<g>
		<text transform="matrix(1 0 0 1 117.6611 369.6327)" style="font-family:'Unbounded-Bold'; font-size:31.8201px;">TURBO CLUB</text>
		<g>
			
				<linearGradient id="SVGID_00000048474778763454244250000015454352770469930937_" gradientUnits="userSpaceOnUse" x1="205.9436" y1="349.011" x2="205.9436" y2="378.3202">
				<stop  offset="0" style="stop-color:#FFFFFF"/>
				<stop  offset="0.2947" style="stop-color:#FFFFFF"/>
				<stop  offset="0.3285" style="stop-color:#F0F0F0"/>
				<stop  offset="0.3928" style="stop-color:#CACACA"/>
				<stop  offset="0.4205" style="stop-color:#B8B8B8"/>
				<stop  offset="0.7211" style="stop-color:#CCCCCC"/>
				<stop  offset="1" style="stop-color:#FFFFFF"/>
			</linearGradient>
			<polygon style="fill:url(#SVGID_00000048474778763454244250000015454352770469930937_);" points="123.151,370.633 
				123.151,351.544 116.629,351.544 116.629,347.189 134.505,347.189 134.505,351.544 127.951,351.544 127.951,370.633 			"/>
			
				<linearGradient id="SVGID_00000134956143750671525050000001274601378065726395_" gradientUnits="userSpaceOnUse" x1="205.9436" y1="349.011" x2="205.9436" y2="378.3202">
				<stop  offset="0" style="stop-color:#FFFFFF"/>
				<stop  offset="0.2947" style="stop-color:#FFFFFF"/>
				<stop  offset="0.3285" style="stop-color:#F0F0F0"/>
				<stop  offset="0.3928" style="stop-color:#CACACA"/>
				<stop  offset="0.4205" style="stop-color:#B8B8B8"/>
				<stop  offset="0.7211" style="stop-color:#CCCCCC"/>
				<stop  offset="1" style="stop-color:#FFFFFF"/>
			</linearGradient>
			<path style="fill:url(#SVGID_00000134956143750671525050000001274601378065726395_);" d="M144.356,370.982
				c-3.249,0-8.699-1.32-8.699-10.162v-13.631h4.799v13.694c0,2.664,0.693,5.84,3.995,5.84c2.799,0,4.218-1.965,4.218-5.84v-13.694
				h4.799v13.504C153.469,367.232,150.147,370.982,144.356,370.982z"/>
			
				<linearGradient id="SVGID_00000032628528700932867190000010870529199507292808_" gradientUnits="userSpaceOnUse" x1="205.9436" y1="349.011" x2="205.9436" y2="378.3202">
				<stop  offset="0" style="stop-color:#FFFFFF"/>
				<stop  offset="0.2947" style="stop-color:#FFFFFF"/>
				<stop  offset="0.3285" style="stop-color:#F0F0F0"/>
				<stop  offset="0.3928" style="stop-color:#CACACA"/>
				<stop  offset="0.4205" style="stop-color:#B8B8B8"/>
				<stop  offset="0.7211" style="stop-color:#CCCCCC"/>
				<stop  offset="1" style="stop-color:#FFFFFF"/>
			</linearGradient>
			<path style="fill:url(#SVGID_00000032628528700932867190000010870529199507292808_);" d="M168.598,370.633l-0.289-0.499
				c-0.377-0.652-0.81-2.167-1.542-5.402c-0.602-2.798-1.562-3.321-3.357-3.39l-1.571,0.001v9.29h-4.768v-22.972l0.799-0.164
				c1.425-0.292,3.486-0.467,5.514-0.467c3.219,0,5.34,0.619,6.875,2.009c1.296,1.144,2.016,2.856,2.016,4.813
				c0,2.39-1.104,4.391-3.029,5.617c0.994,0.898,1.702,2.255,2.113,4.055c0.62,2.647,1.166,4.903,1.56,5.635l0.794,1.474H168.598z
				 M163.671,357.243c2.366,0,3.836-1.177,3.836-3.072c0-0.733,0-2.964-3.937-3.009c-0.731,0-1.31,0.04-1.731,0.09v5.991H163.671z"
				/>
			
				<linearGradient id="SVGID_00000131346384120831263860000005049854921740963719_" gradientUnits="userSpaceOnUse" x1="205.9436" y1="349.011" x2="205.9436" y2="378.3202">
				<stop  offset="0" style="stop-color:#FFFFFF"/>
				<stop  offset="0.2947" style="stop-color:#FFFFFF"/>
				<stop  offset="0.3285" style="stop-color:#F0F0F0"/>
				<stop  offset="0.3928" style="stop-color:#CACACA"/>
				<stop  offset="0.4205" style="stop-color:#B8B8B8"/>
				<stop  offset="0.7211" style="stop-color:#CCCCCC"/>
				<stop  offset="1" style="stop-color:#FFFFFF"/>
			</linearGradient>
			<path style="fill:url(#SVGID_00000131346384120831263860000005049854921740963719_);" d="M180.281,370.823
				c-2.191,0-3.717-0.165-4.431-0.264l-0.864-0.118v-22.776l0.794-0.167c1.369-0.288,3.386-0.468,5.265-0.468
				c2.983,0,4.993,0.55,6.515,1.782c1.396,1.036,2.152,2.623,2.152,4.563c0,1.841-0.878,3.493-2.384,4.626
				c1.715,1.017,3.18,2.822,3.18,5.522c0,1.963-0.712,3.649-2.117,5.013C186.679,370.104,184.109,370.823,180.281,370.823z
				 M179.754,366.632c0.358,0.02,0.794,0.028,1.323,0.028c2.055,0,4.504-0.55,4.504-3.168c0-2.729-2.842-3.136-4.536-3.136h-1.291
				V366.632z M181.268,356.257c2.249,0,3.645-0.994,3.645-2.595c0-0.684,0-2.5-3.708-2.5c-0.554,0-1.039,0.019-1.45,0.056v5.039
				H181.268z"/>
			
				<linearGradient id="SVGID_00000060011533990921859010000004351475573964248711_" gradientUnits="userSpaceOnUse" x1="205.9436" y1="349.011" x2="205.9436" y2="378.3202">
				<stop  offset="0" style="stop-color:#FFFFFF"/>
				<stop  offset="0.2947" style="stop-color:#FFFFFF"/>
				<stop  offset="0.3285" style="stop-color:#F0F0F0"/>
				<stop  offset="0.3928" style="stop-color:#CACACA"/>
				<stop  offset="0.4205" style="stop-color:#B8B8B8"/>
				<stop  offset="0.7211" style="stop-color:#CCCCCC"/>
				<stop  offset="1" style="stop-color:#FFFFFF"/>
			</linearGradient>
			<path style="fill:url(#SVGID_00000060011533990921859010000004351475573964248711_);" d="M202.395,370.982
				c-6.265,0-10.64-4.885-10.64-11.88c0-7.22,4.506-12.263,10.958-12.263c6.265,0,10.64,4.872,10.64,11.849
				C213.353,367.181,207.85,370.982,202.395,370.982z M202.586,351.099c-4.056,0-5.872,3.987-5.872,7.939
				c0,3.701,1.828,7.686,5.84,7.686c4.056,0,5.872-3.972,5.872-7.908C208.426,355.099,206.598,351.099,202.586,351.099z"/>
			
				<linearGradient id="SVGID_00000129172222620069301480000013221582199232330389_" gradientUnits="userSpaceOnUse" x1="205.9436" y1="349.011" x2="205.9436" y2="378.3202">
				<stop  offset="0" style="stop-color:#FFFFFF"/>
				<stop  offset="0.2947" style="stop-color:#FFFFFF"/>
				<stop  offset="0.3285" style="stop-color:#F0F0F0"/>
				<stop  offset="0.3928" style="stop-color:#CACACA"/>
				<stop  offset="0.4205" style="stop-color:#B8B8B8"/>
				<stop  offset="0.7211" style="stop-color:#CCCCCC"/>
				<stop  offset="1" style="stop-color:#FFFFFF"/>
			</linearGradient>
			<path style="fill:url(#SVGID_00000129172222620069301480000013221582199232330389_);" d="M233.61,370.951
				c-7.043,0-11.594-4.65-11.594-11.849c0-7.22,5.016-12.263,12.199-12.263c3.165,0,4.938,0.746,5.553,1.067l0.73,0.381
				l-1.236,4.179l-1.061-0.515c-0.609-0.295-1.925-0.79-3.891-0.79c-4.613,0-7.367,2.933-7.367,7.845
				c0,4.772,2.707,7.622,7.24,7.622c1.49,0,3.092-0.311,4.081-0.791l1.097-0.533l1.084,4.159l-0.724,0.363
				C238.635,370.37,236.46,370.951,233.61,370.951z"/>
			
				<linearGradient id="SVGID_00000113327507404874425370000004222013021533800127_" gradientUnits="userSpaceOnUse" x1="205.9436" y1="349.011" x2="205.9436" y2="378.3202">
				<stop  offset="0" style="stop-color:#FFFFFF"/>
				<stop  offset="0.2947" style="stop-color:#FFFFFF"/>
				<stop  offset="0.3285" style="stop-color:#F0F0F0"/>
				<stop  offset="0.3928" style="stop-color:#CACACA"/>
				<stop  offset="0.4205" style="stop-color:#B8B8B8"/>
				<stop  offset="0.7211" style="stop-color:#CCCCCC"/>
				<stop  offset="1" style="stop-color:#FFFFFF"/>
			</linearGradient>
			<polygon style="fill:url(#SVGID_00000113327507404874425370000004222013021533800127_);" points="242.539,370.633 
				242.539,347.189 247.307,347.189 247.307,366.311 256.47,366.311 256.47,370.633 			"/>
			
				<linearGradient id="SVGID_00000137837002937428319750000017440991733528250760_" gradientUnits="userSpaceOnUse" x1="205.9436" y1="349.011" x2="205.9436" y2="378.3202">
				<stop  offset="0" style="stop-color:#FFFFFF"/>
				<stop  offset="0.2947" style="stop-color:#FFFFFF"/>
				<stop  offset="0.3285" style="stop-color:#F0F0F0"/>
				<stop  offset="0.3928" style="stop-color:#CACACA"/>
				<stop  offset="0.4205" style="stop-color:#B8B8B8"/>
				<stop  offset="0.7211" style="stop-color:#CCCCCC"/>
				<stop  offset="1" style="stop-color:#FFFFFF"/>
			</linearGradient>
			<path style="fill:url(#SVGID_00000137837002937428319750000017440991733528250760_);" d="M267.021,370.982
				c-3.249,0-8.699-1.32-8.699-10.162v-13.631h4.8v13.694c0,2.664,0.693,5.84,3.995,5.84c2.799,0,4.218-1.965,4.218-5.84v-13.694
				h4.8v13.504C276.134,367.232,272.813,370.982,267.021,370.982z"/>
			
				<linearGradient id="SVGID_00000070839321936970451270000000091735172212825743_" gradientUnits="userSpaceOnUse" x1="205.9436" y1="349.011" x2="205.9436" y2="378.3202">
				<stop  offset="0" style="stop-color:#FFFFFF"/>
				<stop  offset="0.2947" style="stop-color:#FFFFFF"/>
				<stop  offset="0.3285" style="stop-color:#F0F0F0"/>
				<stop  offset="0.3928" style="stop-color:#CACACA"/>
				<stop  offset="0.4205" style="stop-color:#B8B8B8"/>
				<stop  offset="0.7211" style="stop-color:#CCCCCC"/>
				<stop  offset="1" style="stop-color:#FFFFFF"/>
			</linearGradient>
			<path style="fill:url(#SVGID_00000070839321936970451270000000091735172212825743_);" d="M285.031,370.823
				c-2.19,0-3.717-0.165-4.432-0.264l-0.863-0.118v-22.776l0.794-0.167c1.368-0.288,3.386-0.468,5.265-0.468
				c2.983,0,4.993,0.55,6.516,1.782c1.396,1.036,2.151,2.623,2.151,4.563c0,1.841-0.878,3.493-2.385,4.626
				c1.716,1.017,3.181,2.822,3.181,5.522c0,1.962-0.712,3.648-2.117,5.013C291.43,370.104,288.859,370.823,285.031,370.823z
				 M284.504,366.632c0.358,0.02,0.794,0.028,1.322,0.028c2.055,0,4.504-0.55,4.504-3.168c0-2.729-2.842-3.136-4.535-3.136h-1.291
				V366.632z M286.018,356.257c2.248,0,3.645-0.994,3.645-2.595c0-0.684,0-2.5-3.708-2.5c-0.555,0-1.039,0.019-1.45,0.056v5.039
				H286.018z"/>
		</g>
		<g>
			
				<linearGradient id="SVGID_00000018935725003961941030000012315721907492752025_" gradientUnits="userSpaceOnUse" x1="205.9436" y1="352.1313" x2="205.9436" y2="363.3847">
				<stop  offset="0" style="stop-color:#FFFFFF"/>
				<stop  offset="0.0979" style="stop-color:#FFFFFF"/>
				<stop  offset="0.1264" style="stop-color:#E9E9E9"/>
				<stop  offset="0.1597" style="stop-color:#D8D8D8"/>
				<stop  offset="0.2011" style="stop-color:#CDCDCD"/>
				<stop  offset="0.2592" style="stop-color:#C6C6C6"/>
				<stop  offset="0.4205" style="stop-color:#C4C4C4"/>
				<stop  offset="0.7211" style="stop-color:#CCCCCC"/>
				<stop  offset="1" style="stop-color:#FFFFFF"/>
			</linearGradient>
			<path style="fill:url(#SVGID_00000018935725003961941030000012315721907492752025_);" d="M124.151,350.544h-6.522v-2.354h15.875
				v2.354h-6.554v19.089h-2.8V350.544z"/>
			
				<linearGradient id="SVGID_00000008119446853268190040000015155766016706203012_" gradientUnits="userSpaceOnUse" x1="205.9436" y1="352.1313" x2="205.9436" y2="363.3847">
				<stop  offset="0" style="stop-color:#FFFFFF"/>
				<stop  offset="0.0979" style="stop-color:#FFFFFF"/>
				<stop  offset="0.1264" style="stop-color:#E9E9E9"/>
				<stop  offset="0.1597" style="stop-color:#D8D8D8"/>
				<stop  offset="0.2011" style="stop-color:#CDCDCD"/>
				<stop  offset="0.2592" style="stop-color:#C6C6C6"/>
				<stop  offset="0.4205" style="stop-color:#C4C4C4"/>
				<stop  offset="0.7211" style="stop-color:#CCCCCC"/>
				<stop  offset="1" style="stop-color:#FFFFFF"/>
			</linearGradient>
			<path style="fill:url(#SVGID_00000008119446853268190040000015155766016706203012_);" d="M139.457,348.189v12.694
				c0,4.804,2.132,6.84,4.995,6.84c3.182,0,5.218-2.1,5.218-6.84v-12.694h2.799v12.504c0,6.585-3.468,9.289-8.112,9.289
				c-4.391,0-7.699-2.513-7.699-9.162v-12.631H139.457z"/>
			
				<linearGradient id="SVGID_00000160907413166923783990000014350185659604544162_" gradientUnits="userSpaceOnUse" x1="205.9436" y1="352.1313" x2="205.9436" y2="363.3847">
				<stop  offset="0" style="stop-color:#FFFFFF"/>
				<stop  offset="0.0979" style="stop-color:#FFFFFF"/>
				<stop  offset="0.1264" style="stop-color:#E9E9E9"/>
				<stop  offset="0.1597" style="stop-color:#D8D8D8"/>
				<stop  offset="0.2011" style="stop-color:#CDCDCD"/>
				<stop  offset="0.2592" style="stop-color:#C6C6C6"/>
				<stop  offset="0.4205" style="stop-color:#C4C4C4"/>
				<stop  offset="0.7211" style="stop-color:#CCCCCC"/>
				<stop  offset="1" style="stop-color:#FFFFFF"/>
			</linearGradient>
			<path style="fill:url(#SVGID_00000160907413166923783990000014350185659604544162_);" d="M158.072,348.477
				c1.4-0.287,3.404-0.446,5.313-0.446c2.959,0,4.868,0.541,6.204,1.75c1.082,0.955,1.687,2.418,1.687,4.072
				c0,2.832-1.782,4.709-4.041,5.473v0.095c1.654,0.573,2.641,2.101,3.149,4.327c0.7,2.99,1.209,5.059,1.654,5.886h-2.863
				c-0.35-0.604-0.827-2.45-1.432-5.122c-0.636-2.959-1.781-4.072-4.295-4.168h-2.609v9.29h-2.768V348.477z M160.839,358.243h2.832
				c2.959,0,4.836-1.622,4.836-4.072c0-2.768-2.004-3.977-4.931-4.009c-1.336,0-2.291,0.127-2.736,0.255V358.243z"/>
			
				<linearGradient id="SVGID_00000178909823784823894910000001740827238261222580_" gradientUnits="userSpaceOnUse" x1="205.9436" y1="352.1313" x2="205.9436" y2="363.3847">
				<stop  offset="0" style="stop-color:#FFFFFF"/>
				<stop  offset="0.0979" style="stop-color:#FFFFFF"/>
				<stop  offset="0.1264" style="stop-color:#E9E9E9"/>
				<stop  offset="0.1597" style="stop-color:#D8D8D8"/>
				<stop  offset="0.2011" style="stop-color:#CDCDCD"/>
				<stop  offset="0.2592" style="stop-color:#C6C6C6"/>
				<stop  offset="0.4205" style="stop-color:#C4C4C4"/>
				<stop  offset="0.7211" style="stop-color:#CCCCCC"/>
				<stop  offset="1" style="stop-color:#FFFFFF"/>
			</linearGradient>
			<path style="fill:url(#SVGID_00000178909823784823894910000001740827238261222580_);" d="M175.986,348.477
				c1.209-0.255,3.118-0.446,5.059-0.446c2.768,0,4.549,0.478,5.886,1.56c1.113,0.827,1.781,2.1,1.781,3.786
				c0,2.067-1.368,3.881-3.626,4.708v0.063c2.036,0.51,4.422,2.195,4.422,5.377c0,1.846-0.731,3.245-1.813,4.295
				c-1.495,1.368-3.913,2.004-7.413,2.004c-1.909,0-3.373-0.127-4.295-0.254V348.477z M178.754,357.257h2.514
				c2.927,0,4.645-1.527,4.645-3.595c0-2.514-1.909-3.5-4.708-3.5c-1.273,0-2.004,0.096-2.45,0.191V357.257z M178.754,367.533
				c0.541,0.096,1.336,0.127,2.323,0.127c2.863,0,5.504-1.05,5.504-4.168c0-2.927-2.513-4.136-5.536-4.136h-2.291V367.533z"/>
			
				<linearGradient id="SVGID_00000072959487403219621710000005851965174801886349_" gradientUnits="userSpaceOnUse" x1="205.9436" y1="352.1313" x2="205.9436" y2="363.3847">
				<stop  offset="0" style="stop-color:#FFFFFF"/>
				<stop  offset="0.0979" style="stop-color:#FFFFFF"/>
				<stop  offset="0.1264" style="stop-color:#E9E9E9"/>
				<stop  offset="0.1597" style="stop-color:#D8D8D8"/>
				<stop  offset="0.2011" style="stop-color:#CDCDCD"/>
				<stop  offset="0.2592" style="stop-color:#C6C6C6"/>
				<stop  offset="0.4205" style="stop-color:#C4C4C4"/>
				<stop  offset="0.7211" style="stop-color:#CCCCCC"/>
				<stop  offset="1" style="stop-color:#FFFFFF"/>
			</linearGradient>
			<path style="fill:url(#SVGID_00000072959487403219621710000005851965174801886349_);" d="M212.353,358.688
				c0,7.381-4.486,11.294-9.958,11.294c-5.663,0-9.64-4.39-9.64-10.88c0-6.809,4.231-11.263,9.958-11.263
				C208.567,347.84,212.353,352.326,212.353,358.688z M195.714,359.038c0,4.582,2.481,8.686,6.84,8.686
				c4.39,0,6.872-4.04,6.872-8.908c0-4.263-2.227-8.717-6.84-8.717C198.004,350.099,195.714,354.33,195.714,359.038z"/>
			
				<linearGradient id="SVGID_00000122713073747890839140000013901526324053095571_" gradientUnits="userSpaceOnUse" x1="205.9436" y1="352.1313" x2="205.9436" y2="363.3847">
				<stop  offset="0" style="stop-color:#FFFFFF"/>
				<stop  offset="0.0979" style="stop-color:#FFFFFF"/>
				<stop  offset="0.1264" style="stop-color:#E9E9E9"/>
				<stop  offset="0.1597" style="stop-color:#D8D8D8"/>
				<stop  offset="0.2011" style="stop-color:#CDCDCD"/>
				<stop  offset="0.2592" style="stop-color:#C6C6C6"/>
				<stop  offset="0.4205" style="stop-color:#C4C4C4"/>
				<stop  offset="0.7211" style="stop-color:#CCCCCC"/>
				<stop  offset="1" style="stop-color:#FFFFFF"/>
			</linearGradient>
			<path style="fill:url(#SVGID_00000122713073747890839140000013901526324053095571_);" d="M239.273,368.933
				c-1.018,0.51-3.054,1.019-5.663,1.019c-6.045,0-10.594-3.818-10.594-10.849c0-6.713,4.549-11.263,11.199-11.263
				c2.672,0,4.358,0.572,5.09,0.954l-0.668,2.259c-1.05-0.509-2.545-0.891-4.327-0.891c-5.027,0-8.367,3.214-8.367,8.845
				c0,5.249,3.022,8.622,8.24,8.622c1.687,0,3.404-0.351,4.518-0.892L239.273,368.933z"/>
			
				<linearGradient id="SVGID_00000152236961682859626250000004590283654195993782_" gradientUnits="userSpaceOnUse" x1="205.9436" y1="352.1313" x2="205.9436" y2="363.3847">
				<stop  offset="0" style="stop-color:#FFFFFF"/>
				<stop  offset="0.0979" style="stop-color:#FFFFFF"/>
				<stop  offset="0.1264" style="stop-color:#E9E9E9"/>
				<stop  offset="0.1597" style="stop-color:#D8D8D8"/>
				<stop  offset="0.2011" style="stop-color:#CDCDCD"/>
				<stop  offset="0.2592" style="stop-color:#C6C6C6"/>
				<stop  offset="0.4205" style="stop-color:#C4C4C4"/>
				<stop  offset="0.7211" style="stop-color:#CCCCCC"/>
				<stop  offset="1" style="stop-color:#FFFFFF"/>
			</linearGradient>
			<path style="fill:url(#SVGID_00000152236961682859626250000004590283654195993782_);" d="M243.539,348.189h2.768v19.121h9.163
				v2.322h-11.931V348.189z"/>
			
				<linearGradient id="SVGID_00000144339705206679908530000009993664351904355974_" gradientUnits="userSpaceOnUse" x1="205.9436" y1="352.1313" x2="205.9436" y2="363.3847">
				<stop  offset="0" style="stop-color:#FFFFFF"/>
				<stop  offset="0.0979" style="stop-color:#FFFFFF"/>
				<stop  offset="0.1264" style="stop-color:#E9E9E9"/>
				<stop  offset="0.1597" style="stop-color:#D8D8D8"/>
				<stop  offset="0.2011" style="stop-color:#CDCDCD"/>
				<stop  offset="0.2592" style="stop-color:#C6C6C6"/>
				<stop  offset="0.4205" style="stop-color:#C4C4C4"/>
				<stop  offset="0.7211" style="stop-color:#CCCCCC"/>
				<stop  offset="1" style="stop-color:#FFFFFF"/>
			</linearGradient>
			<path style="fill:url(#SVGID_00000144339705206679908530000009993664351904355974_);" d="M262.121,348.189v12.694
				c0,4.804,2.132,6.84,4.995,6.84c3.182,0,5.218-2.1,5.218-6.84v-12.694h2.8v12.504c0,6.585-3.468,9.289-8.113,9.289
				c-4.391,0-7.699-2.513-7.699-9.162v-12.631H262.121z"/>
			
				<linearGradient id="SVGID_00000041267569013084489800000009189272870120404103_" gradientUnits="userSpaceOnUse" x1="205.9436" y1="352.1313" x2="205.9436" y2="363.3847">
				<stop  offset="0" style="stop-color:#FFFFFF"/>
				<stop  offset="0.0979" style="stop-color:#FFFFFF"/>
				<stop  offset="0.1264" style="stop-color:#E9E9E9"/>
				<stop  offset="0.1597" style="stop-color:#D8D8D8"/>
				<stop  offset="0.2011" style="stop-color:#CDCDCD"/>
				<stop  offset="0.2592" style="stop-color:#C6C6C6"/>
				<stop  offset="0.4205" style="stop-color:#C4C4C4"/>
				<stop  offset="0.7211" style="stop-color:#CCCCCC"/>
				<stop  offset="1" style="stop-color:#FFFFFF"/>
			</linearGradient>
			<path style="fill:url(#SVGID_00000041267569013084489800000009189272870120404103_);" d="M280.736,348.477
				c1.209-0.255,3.118-0.446,5.059-0.446c2.768,0,4.55,0.478,5.886,1.56c1.113,0.827,1.781,2.1,1.781,3.786
				c0,2.067-1.368,3.881-3.627,4.708v0.063c2.036,0.51,4.423,2.195,4.423,5.377c0,1.846-0.732,3.245-1.813,4.295
				c-1.495,1.368-3.913,2.004-7.413,2.004c-1.909,0-3.372-0.127-4.295-0.254V348.477z M283.504,357.257h2.514
				c2.927,0,4.645-1.527,4.645-3.595c0-2.514-1.908-3.5-4.708-3.5c-1.272,0-2.005,0.096-2.45,0.191V357.257z M283.504,367.533
				c0.541,0.096,1.337,0.127,2.322,0.127c2.863,0,5.504-1.05,5.504-4.168c0-2.927-2.513-4.136-5.535-4.136h-2.291V367.533z"/>
		</g>
	</g>
	<g>
		
			<text transform="matrix(1 0 0 1 165.0829 389.9988)" style="font-family:'Montserrat-Regular'; font-size:12px; letter-spacing:4;">MAXIMUM SPEED</text>
		<g>
			
				<linearGradient id="SVGID_00000091728883652179948300000013531392910720634780_" gradientUnits="userSpaceOnUse" x1="228.7222" y1="379.5993" x2="354.8741" y2="476.0686">
				<stop  offset="0" style="stop-color:#FF0700"/>
				<stop  offset="1" style="stop-color:#420200"/>
			</linearGradient>
			<path style="fill:url(#SVGID_00000091728883652179948300000013531392910720634780_);" d="M172.807,386.449
				c-0.06-1.128-0.132-2.482-0.12-3.49h-0.036c-0.276,0.947-0.612,1.955-1.02,3.07l-1.427,3.922h-0.792l-1.307-3.85
				c-0.384-1.14-0.708-2.184-0.936-3.143h-0.024c-0.024,1.008-0.084,2.362-0.156,3.574l-0.216,3.466h-0.995l0.563-8.084h1.332
				l1.379,3.91c0.336,0.995,0.612,1.883,0.815,2.723h0.036c0.204-0.815,0.492-1.703,0.852-2.723l1.439-3.91h1.331l0.504,8.084h-1.02
				L172.807,386.449z"/>
			
				<linearGradient id="SVGID_00000083775022393649127940000008028470014015213493_" gradientUnits="userSpaceOnUse" x1="228.7222" y1="379.5993" x2="354.8741" y2="476.0686">
				<stop  offset="0" style="stop-color:#FF0700"/>
				<stop  offset="1" style="stop-color:#420200"/>
			</linearGradient>
			<path style="fill:url(#SVGID_00000083775022393649127940000008028470014015213493_);" d="M181.75,387.456l-0.839,2.543h-1.08
				l2.747-8.084h1.259l2.758,8.084h-1.115l-0.863-2.543H181.75z M184.4,386.641l-0.792-2.326c-0.18-0.528-0.3-1.008-0.419-1.476
				h-0.024c-0.12,0.479-0.251,0.972-0.408,1.463l-0.792,2.339H184.4z"/>
			
				<linearGradient id="SVGID_00000011715164925362883580000002126419086301803703_" gradientUnits="userSpaceOnUse" x1="228.7222" y1="379.5993" x2="354.8741" y2="476.0686">
				<stop  offset="0" style="stop-color:#FF0700"/>
				<stop  offset="1" style="stop-color:#420200"/>
			</linearGradient>
			<path style="fill:url(#SVGID_00000011715164925362883580000002126419086301803703_);" d="M197.012,389.999l-1.031-1.787
				c-0.42-0.684-0.684-1.127-0.936-1.595h-0.024c-0.228,0.468-0.456,0.899-0.875,1.606l-0.972,1.775h-1.199l2.471-4.09l-2.375-3.994
				h1.211l1.067,1.896c0.3,0.527,0.528,0.936,0.744,1.367h0.036c0.228-0.479,0.432-0.852,0.731-1.367l1.104-1.896h1.199
				l-2.458,3.935l2.519,4.149H197.012z"/>
			
				<linearGradient id="SVGID_00000023979558790197466410000006412260519960922270_" gradientUnits="userSpaceOnUse" x1="228.7222" y1="379.5993" x2="354.8741" y2="476.0686">
				<stop  offset="0" style="stop-color:#FF0700"/>
				<stop  offset="1" style="stop-color:#420200"/>
			</linearGradient>
			<path style="fill:url(#SVGID_00000023979558790197466410000006412260519960922270_);" d="M205.282,381.915v8.084h-1.043v-8.084
				H205.282z"/>
			
				<linearGradient id="SVGID_00000152258307110565225240000004200991385005954435_" gradientUnits="userSpaceOnUse" x1="228.7222" y1="379.5993" x2="354.8741" y2="476.0686">
				<stop  offset="0" style="stop-color:#FF0700"/>
				<stop  offset="1" style="stop-color:#420200"/>
			</linearGradient>
			<path style="fill:url(#SVGID_00000152258307110565225240000004200991385005954435_);" d="M218.719,386.449
				c-0.06-1.128-0.132-2.482-0.12-3.49h-0.036c-0.275,0.947-0.611,1.955-1.019,3.07l-1.428,3.922h-0.791l-1.308-3.85
				c-0.384-1.14-0.708-2.184-0.936-3.143h-0.024c-0.023,1.008-0.084,2.362-0.155,3.574l-0.216,3.466h-0.996l0.564-8.084h1.331
				l1.379,3.91c0.336,0.995,0.611,1.883,0.815,2.723h0.036c0.204-0.815,0.492-1.703,0.852-2.723l1.439-3.91h1.331l0.504,8.084h-1.02
				L218.719,386.449z"/>
			
				<linearGradient id="SVGID_00000006704762989737357790000008380524106105409468_" gradientUnits="userSpaceOnUse" x1="228.7222" y1="379.5993" x2="354.8741" y2="476.0686">
				<stop  offset="0" style="stop-color:#FF0700"/>
				<stop  offset="1" style="stop-color:#420200"/>
			</linearGradient>
			<path style="fill:url(#SVGID_00000006704762989737357790000008380524106105409468_);" d="M227.397,381.915v4.786
				c0,1.811,0.804,2.578,1.883,2.578c1.199,0,1.967-0.791,1.967-2.578v-4.786h1.056v4.714c0,2.482-1.308,3.502-3.059,3.502
				c-1.655,0-2.902-0.947-2.902-3.454v-4.762H227.397z"/>
			
				<linearGradient id="SVGID_00000048476897621578876260000012938289899380559496_" gradientUnits="userSpaceOnUse" x1="228.7222" y1="379.5993" x2="354.8741" y2="476.0686">
				<stop  offset="0" style="stop-color:#FF0700"/>
				<stop  offset="1" style="stop-color:#420200"/>
			</linearGradient>
			<path style="fill:url(#SVGID_00000048476897621578876260000012938289899380559496_);" d="M245.73,386.449
				c-0.06-1.128-0.132-2.482-0.12-3.49h-0.036c-0.275,0.947-0.611,1.955-1.019,3.07l-1.428,3.922h-0.791l-1.308-3.85
				c-0.384-1.14-0.708-2.184-0.936-3.143h-0.024c-0.023,1.008-0.084,2.362-0.155,3.574l-0.216,3.466h-0.996l0.564-8.084h1.331
				l1.379,3.91c0.336,0.995,0.611,1.883,0.815,2.723h0.036c0.204-0.815,0.492-1.703,0.852-2.723l1.439-3.91h1.331l0.504,8.084h-1.02
				L245.73,386.449z"/>
			
				<linearGradient id="SVGID_00000009591940624089039990000018419648420500027573_" gradientUnits="userSpaceOnUse" x1="228.7222" y1="379.5993" x2="354.8741" y2="476.0686">
				<stop  offset="0" style="stop-color:#FF0700"/>
				<stop  offset="1" style="stop-color:#420200"/>
			</linearGradient>
			<path style="fill:url(#SVGID_00000009591940624089039990000018419648420500027573_);" d="M260.565,388.728
				c0.468,0.288,1.151,0.528,1.871,0.528c1.067,0,1.691-0.564,1.691-1.38c0-0.756-0.433-1.188-1.523-1.606
				c-1.319-0.468-2.135-1.151-2.135-2.291c0-1.26,1.043-2.195,2.614-2.195c0.827,0,1.428,0.192,1.787,0.396l-0.288,0.852
				c-0.264-0.145-0.804-0.384-1.535-0.384c-1.104,0-1.522,0.659-1.522,1.211c0,0.756,0.491,1.127,1.606,1.56
				c1.367,0.527,2.063,1.187,2.063,2.374c0,1.248-0.924,2.327-2.831,2.327c-0.779,0-1.631-0.229-2.063-0.516L260.565,388.728z"/>
			
				<linearGradient id="SVGID_00000096741487418202487990000004434521412346408612_" gradientUnits="userSpaceOnUse" x1="228.7222" y1="379.5993" x2="354.8741" y2="476.0686">
				<stop  offset="0" style="stop-color:#FF0700"/>
				<stop  offset="1" style="stop-color:#420200"/>
			</linearGradient>
			<path style="fill:url(#SVGID_00000096741487418202487990000004434521412346408612_);" d="M271.425,382.012
				c0.504-0.084,1.164-0.156,2.003-0.156c1.032,0,1.787,0.24,2.268,0.672c0.443,0.384,0.707,0.972,0.707,1.69
				c0,0.732-0.216,1.308-0.624,1.728c-0.551,0.588-1.451,0.888-2.47,0.888c-0.313,0-0.601-0.013-0.84-0.072v3.238h-1.044V382.012z
				 M272.469,385.909c0.228,0.061,0.516,0.084,0.863,0.084c1.26,0,2.027-0.611,2.027-1.727c0-1.067-0.756-1.584-1.907-1.584
				c-0.456,0-0.804,0.036-0.983,0.084V385.909z"/>
			
				<linearGradient id="SVGID_00000059992866613496782120000005499179319842329476_" gradientUnits="userSpaceOnUse" x1="228.7222" y1="379.5993" x2="354.8741" y2="476.0686">
				<stop  offset="0" style="stop-color:#FF0700"/>
				<stop  offset="1" style="stop-color:#420200"/>
			</linearGradient>
			<path style="fill:url(#SVGID_00000059992866613496782120000005499179319842329476_);" d="M286.796,386.209h-3.143v2.914h3.502
				v0.876h-4.546v-8.084h4.366v0.876h-3.322v2.555h3.143V386.209z"/>
			
				<linearGradient id="SVGID_00000143579856258299545820000014280618009784826530_" gradientUnits="userSpaceOnUse" x1="228.7222" y1="379.5993" x2="354.8741" y2="476.0686">
				<stop  offset="0" style="stop-color:#FF0700"/>
				<stop  offset="1" style="stop-color:#420200"/>
			</linearGradient>
			<path style="fill:url(#SVGID_00000143579856258299545820000014280618009784826530_);" d="M297.5,386.209h-3.143v2.914h3.502
				v0.876h-4.546v-8.084h4.366v0.876h-3.322v2.555h3.143V386.209z"/>
			
				<linearGradient id="SVGID_00000006679650410149259760000002083913905934821536_" gradientUnits="userSpaceOnUse" x1="228.7222" y1="379.5993" x2="354.8741" y2="476.0686">
				<stop  offset="0" style="stop-color:#FF0700"/>
				<stop  offset="1" style="stop-color:#420200"/>
			</linearGradient>
			<path style="fill:url(#SVGID_00000006679650410149259760000002083913905934821536_);" d="M304.017,382.023
				c0.636-0.096,1.392-0.168,2.219-0.168c1.5,0,2.567,0.348,3.274,1.008c0.72,0.659,1.14,1.595,1.14,2.902
				c0,1.319-0.408,2.398-1.163,3.142c-0.756,0.756-2.003,1.164-3.574,1.164c-0.744,0-1.367-0.036-1.896-0.097V382.023z
				 M305.061,389.172c0.264,0.048,0.647,0.06,1.056,0.06c2.23,0,3.441-1.247,3.441-3.43c0.013-1.907-1.067-3.119-3.273-3.119
				c-0.54,0-0.948,0.049-1.224,0.108V389.172z"/>
		</g>
	</g>
</g>
</svg>
